<svg width="24" height="24" viewBox="0 0 24 24" fill="none" xmlns="http://www.w3.org/2000/svg">
<path fill-rule="evenodd" clip-rule="evenodd" d="M6.32808 6.12248C6.15737 5.90945 5.92184 5.61264 5.52395 5.18869C4.88456 4.50732 4.68416 4.29904 4.677 4.28613C4.39455 3.77286 4.55214 3.37592 3.81362 2.71721C2.90981 1.91122 2.08234 1.377 1.33109 1.04554C1.13122 0.961355 1.00133 0.766509 1.00133 0.550584L1 0.550189C0.999868 0.35811 1.10073 0.179863 1.26588 0.0800026C1.43103 -0.019726 1.6366 -0.0267084 1.80811 0.0618222C3.14785 0.792594 4.56951 1.78395 4.677 1.86352C5.3482 2.36045 5.88552 2.30789 6.43836 2.71721C6.65904 2.88057 7.80978 3.96863 8.28335 4.50746C13.9729 5.17394 19.2855 7.24399 22.9154 15.5494C23.0278 15.8064 23.0282 16.0981 22.9166 16.3554C22.8049 16.6127 22.5912 16.8127 22.3261 16.9079C21.3608 17.2547 20.432 17.4662 19.5357 17.5573C19.1476 19.542 18.3082 20.8217 17.1603 21.4753C15.9942 22.1393 14.4237 22.2034 12.4624 21.5186C11.9146 22.3047 11.2279 23.0538 10.3838 23.7611C10.1682 23.9417 9.88725 24.0257 9.60719 23.9931C9.32726 23.9606 9.07331 23.8144 8.90551 23.5892C3.70771 16.612 4.27712 11.1694 6.32808 6.12248ZM12.2164 15.4597C9.94663 13.6908 8.40635 11.5032 7.50427 8.94952C6.4532 12.6251 6.61067 16.6222 9.88288 21.4495C11.5175 19.7443 12.1809 17.7802 12.2151 15.6487C12.2151 15.6481 12.2151 15.6473 12.2151 15.6466C12.2162 15.5844 12.2166 15.5221 12.2164 15.4597ZM13.4569 19.7159C14.5615 20.0695 15.4556 20.1073 16.1454 19.7145C16.8043 19.3393 17.212 18.6059 17.4564 17.5532C16.3241 17.4309 15.2442 17.114 14.2075 16.6374C14.1102 17.7043 13.8698 18.7331 13.4569 19.7159ZM8.96648 6.64734C9.64417 9.67055 11.1928 12.1941 13.8067 14.1121C15.8262 15.3762 18.0381 15.9288 20.5624 15.321C17.5629 9.2163 13.4276 7.32963 8.96648 6.64734Z" fill="black"/>
</svg>
