<svg width="256" height="256" viewBox="0 0 256 256" fill="none" xmlns="http://www.w3.org/2000/svg">
<path fill-rule="evenodd" clip-rule="evenodd" d="M90.199 83.3861C88.911 81.7691 87.134 79.5161 84.132 76.2981C79.308 71.1261 77.796 69.5451 77.742 69.4471C75.611 65.5511 76.8 62.5381 71.228 57.5381C64.409 51.4201 58.166 47.365 52.498 44.849C50.99 44.21 50.01 42.731 50.01 41.092L50 41.089C49.999 39.631 50.76 38.278 52.006 37.52C53.252 36.763 54.803 36.71 56.097 37.382C66.205 42.929 76.931 50.454 77.742 51.058C82.806 54.83 86.86 54.4311 91.031 57.5381C92.696 58.7781 101.378 67.0371 104.951 71.1271C147.877 76.1861 187.959 91.899 215.346 154.942C216.194 156.893 216.197 159.107 215.355 161.06C214.512 163.013 212.9 164.531 210.9 165.254C203.617 167.886 196.609 169.492 189.847 170.183C186.919 185.248 180.586 194.962 171.925 199.923C163.127 204.963 151.278 205.45 136.481 200.252C132.348 206.219 127.167 211.905 120.798 217.274C119.172 218.645 117.052 219.282 114.939 219.035C112.827 218.788 110.911 217.678 109.645 215.969C70.429 163.008 74.725 121.695 90.199 83.3861ZM134.625 154.261C117.5 140.834 105.879 124.229 99.073 104.845C91.143 132.745 92.331 163.085 117.019 199.727C129.352 186.784 134.357 171.875 134.615 155.696C134.615 155.691 134.615 155.685 134.615 155.68C134.623 155.208 134.626 154.735 134.625 154.261ZM143.984 186.568C152.318 189.252 159.064 189.539 164.268 186.558C169.239 183.71 172.315 178.143 174.159 170.152C165.616 169.224 157.469 166.818 149.647 163.201C148.913 171.299 147.099 179.108 143.984 186.568ZM110.105 87.37C115.218 110.318 126.902 129.473 146.623 144.032C161.86 153.627 178.548 157.822 197.593 153.208C174.963 106.87 143.763 92.549 110.105 87.37Z" fill="black"/>
</svg>
