<?xml version="1.0" encoding="UTF-8" standalone="no"?><!DOCTYPE svg PUBLIC "-//W3C//DTD SVG 1.1//EN" "http://www.w3.org/Graphics/SVG/1.1/DTD/svg11.dtd"><svg width="100%" height="100%" viewBox="0 0 931 256" version="1.1" xmlns="http://www.w3.org/2000/svg" xmlns:xlink="http://www.w3.org/1999/xlink" xml:space="preserve" xmlns:serif="http://www.serif.com/" style="fill-rule:evenodd;clip-rule:evenodd;stroke-linejoin:round;stroke-miterlimit:2;"><rect id="Artboard1" x="0" y="0" width="931" height="256" style="fill:none;"/><path d="M85.207,83.386c-1.288,-1.617 -3.065,-3.87 -6.067,-7.088c-4.824,-5.172 -6.336,-6.753 -6.39,-6.851c-2.131,-3.896 -0.942,-6.909 -6.514,-11.909c-6.819,-6.118 -13.062,-10.173 -18.73,-12.689c-1.508,-0.639 -2.488,-2.118 -2.488,-3.757l-0.01,-0.003c-0.001,-1.458 0.76,-2.811 2.006,-3.569c1.246,-0.757 2.797,-0.81 4.091,-0.138c10.108,5.547 20.834,13.072 21.645,13.676c5.064,3.772 9.118,3.373 13.289,6.48c1.665,1.24 10.347,9.499 13.92,13.589c42.926,5.059 83.008,20.772 110.395,83.815c0.848,1.951 0.851,4.165 0.009,6.118c-0.843,1.953 -2.455,3.471 -4.455,4.194c-7.283,2.632 -14.291,4.238 -21.053,4.929c-2.928,15.065 -9.261,24.779 -17.922,29.74c-8.798,5.04 -20.647,5.527 -35.444,0.329c-4.133,5.967 -9.314,11.653 -15.683,17.022c-1.626,1.371 -3.746,2.008 -5.859,1.761c-2.112,-0.247 -4.028,-1.357 -5.294,-3.066c-39.216,-52.961 -34.92,-94.274 -19.446,-132.583Zm44.426,70.875c-17.125,-13.427 -28.746,-30.032 -35.552,-49.416c-7.93,27.9 -6.742,58.24 17.946,94.882c12.333,-12.943 17.338,-27.852 17.596,-44.031c-0,-0.005 0,-0.011 0,-0.016c0.008,-0.472 0.011,-0.945 0.01,-1.419Zm9.359,32.307c8.334,2.684 15.08,2.971 20.284,-0.01c4.971,-2.848 8.047,-8.415 9.891,-16.406c-8.543,-0.928 -16.69,-3.334 -24.512,-6.951c-0.734,8.098 -2.548,15.907 -5.663,23.367Zm-33.879,-99.198c5.113,22.948 16.797,42.103 36.518,56.662c15.237,9.595 31.925,13.79 50.97,9.176c-22.63,-46.338 -53.83,-60.659 -87.488,-65.838Z"/><path d="M95.696,78.402c41.802,4.381 81.014,18.424 107.594,79.609c-25.129,9.081 -46.642,4.669 -66.041,-7.637c-24.381,-17.911 -37.508,-42.319 -41.553,-71.972Z" style="fill-opacity:0.5;"/><g><path d="M273.101,169.7c23.85,0 38.4,-12.9 38.4,-31.95c0,-24 -21.6,-29.4 -33.9,-33.3c-9.15,-2.85 -16.65,-5.4 -16.65,-13.2c0,-7.05 6.15,-11.55 14.55,-11.55c7.8,0 12.6,3.75 17.7,11.85l18,-11.1c-7.8,-12.3 -18.3,-19.5 -34.65,-19.5c-22.2,0 -37.05,12.45 -37.05,31.35c0,15.9 10.35,25.35 26.55,29.55c12.9,3.3 24,6.6 24,17.1c0,7.2 -6,12 -15.75,12c-9.15,0 -17.85,-4.65 -23.25,-15.45l-18.15,11.55c9.15,16.05 23.55,22.65 40.2,22.65Z" style="fill-rule:nonzero;"/><path d="M317.364,167.75l20.25,0l-0,-42.75c-0,-13.5 7.65,-19.35 16.2,-19.35c10.05,0 16.8,5.85 16.8,19.35l-0,42.75l20.25,0l-0,-47.7c-0,-19.65 -12.9,-32.1 -29.7,-32.1c-12,0 -19.8,4.5 -23.85,13.2l-0,-11.4l-19.95,0l-0,78Z" style="fill-rule:nonzero;"/><path d="M433.914,169.7c24.15,0 41.55,-18.3 41.55,-40.8c-0,-22.5 -17.4,-40.95 -41.55,-40.95c-24.15,0 -41.55,18.45 -41.55,40.95c-0,22.5 17.4,40.8 41.55,40.8Zm-21.3,-40.8c-0,-12.15 8.4,-22.5 21.3,-22.5c12.9,0 21.3,10.35 21.3,22.5c-0,12.15 -8.4,22.35 -21.3,22.35c-12.9,0 -21.3,-10.2 -21.3,-22.35Z" style="fill-rule:nonzero;"/><path d="M494.676,167.75l23.25,0l11.7,-44.4c1.05,-3.75 1.8,-7.8 2.4,-11.7c0.6,3.9 1.5,7.95 2.7,11.7l12.75,44.4l21.9,0l24.3,-78l-22.05,0l-10.8,44.25c-0.9,3.75 -1.8,7.95 -2.4,11.85c-0.6,-3.9 -1.5,-8.25 -2.55,-12l-12.15,-44.1l-23.25,0l-11.4,44.1c-1.05,3.75 -1.95,8.1 -2.55,12c-0.6,-3.9 -1.5,-8.1 -2.4,-11.85l-10.05,-44.25l-23.7,0l24.3,78Z" style="fill-rule:nonzero;"/><path d="M622.476,169.7c13.95,0 21,-5.85 25.2,-14.7l0,12.75l19.65,0l0,-109.5l-20.25,0l0,43.5c-4.2,-8.25 -11.25,-13.65 -24.6,-13.65c-21.45,0 -38.55,18.45 -38.55,40.95c0,22.5 17.1,40.65 38.55,40.65Zm-18.3,-40.8c0,-12.15 8.7,-22.5 21.6,-22.5c13.35,0 21.9,10.5 21.9,22.65c0,12.15 -8.55,22.35 -21.9,22.35c-12.9,0 -21.6,-10.65 -21.6,-22.5Z" style="fill-rule:nonzero;"/><path d="M671.826,167.75l20.25,0l0,-39.9c0,-13.05 9,-20.85 20.7,-20.85l2.85,0l0,-19.05c-13.5,-0.75 -21.45,5.4 -24.15,16.65l0,-14.85l-19.65,0l0,78Z" style="fill-rule:nonzero;"/><path d="M749.676,169.7c24.15,0 41.55,-18.3 41.55,-40.8c0,-22.5 -17.4,-40.95 -41.55,-40.95c-24.15,0 -41.55,18.45 -41.55,40.95c0,22.5 17.4,40.8 41.55,40.8Zm-21.3,-40.8c0,-12.15 8.4,-22.5 21.3,-22.5c12.9,0 21.3,10.35 21.3,22.5c0,12.15 -8.4,22.35 -21.3,22.35c-12.9,0 -21.3,-10.2 -21.3,-22.35Z" style="fill-rule:nonzero;"/><path d="M792.726,197.75l20.25,0l0,-41.55c4.2,8.1 11.25,13.5 24.6,13.5c21.45,0 38.55,-18.15 38.55,-40.65c0,-22.5 -17.1,-40.95 -38.55,-40.95c-13.65,0 -20.7,5.7 -24.9,14.25l0,-12.6l-19.95,0l0,108Zm19.65,-68.7c0,-12.15 8.55,-22.65 21.9,-22.65c12.9,0 21.6,10.35 21.6,22.5c0,11.85 -8.7,22.5 -21.6,22.5c-13.35,0 -21.9,-10.2 -21.9,-22.35Z" style="fill-rule:nonzero;"/></g></svg>