<?xml version="1.0" encoding="UTF-8" standalone="no"?><!DOCTYPE svg PUBLIC "-//W3C//DTD SVG 1.1//EN" "http://www.w3.org/Graphics/SVG/1.1/DTD/svg11.dtd"><svg width="100%" height="100%" viewBox="0 0 256 256" version="1.1" xmlns="http://www.w3.org/2000/svg" xmlns:xlink="http://www.w3.org/1999/xlink" xml:space="preserve" xmlns:serif="http://www.serif.com/" style="fill-rule:evenodd;clip-rule:evenodd;stroke-linejoin:round;stroke-miterlimit:2;"><rect id="Artboard1" x="0" y="0" width="256" height="256" style="fill:none;"/><path d="M85.207,83.386c-1.288,-1.617 -3.065,-3.87 -6.067,-7.088c-4.824,-5.172 -6.336,-6.753 -6.39,-6.851c-2.131,-3.896 -0.942,-6.909 -6.514,-11.909c-6.819,-6.118 -13.062,-10.173 -18.73,-12.689c-1.508,-0.639 -2.488,-2.118 -2.488,-3.757l-0.01,-0.003c-0.001,-1.458 0.76,-2.811 2.006,-3.569c1.246,-0.757 2.797,-0.81 4.091,-0.138c10.108,5.547 20.834,13.072 21.645,13.676c5.064,3.772 9.118,3.373 13.289,6.48c1.665,1.24 10.347,9.499 13.92,13.589c42.926,5.059 83.008,20.772 110.395,83.815c0.848,1.951 0.851,4.165 0.009,6.118c-0.843,1.953 -2.455,3.471 -4.455,4.194c-7.283,2.632 -14.291,4.238 -21.053,4.929c-2.928,15.065 -9.261,24.779 -17.922,29.74c-8.798,5.04 -20.647,5.527 -35.444,0.329c-4.133,5.967 -9.314,11.653 -15.683,17.022c-1.626,1.371 -3.746,2.008 -5.859,1.761c-2.112,-0.247 -4.028,-1.357 -5.294,-3.066c-39.216,-52.961 -34.92,-94.274 -19.446,-132.583Zm44.426,70.875c-17.125,-13.427 -28.746,-30.032 -35.552,-49.416c-7.93,27.9 -6.742,58.24 17.946,94.882c12.333,-12.943 17.338,-27.852 17.596,-44.031c-0,-0.005 0,-0.011 0,-0.016c0.008,-0.472 0.011,-0.945 0.01,-1.419Zm9.359,32.307c8.334,2.684 15.08,2.971 20.284,-0.01c4.971,-2.848 8.047,-8.415 9.891,-16.406c-8.543,-0.928 -16.69,-3.334 -24.512,-6.951c-0.734,8.098 -2.548,15.907 -5.663,23.367Zm-33.879,-99.198c5.113,22.948 16.797,42.103 36.518,56.662c15.237,9.595 31.925,13.79 50.97,9.176c-22.63,-46.338 -53.83,-60.659 -87.488,-65.838Z"/><path d="M95.696,78.402c41.802,4.381 81.014,18.424 107.594,79.609c-25.129,9.081 -46.642,4.669 -66.041,-7.637c-24.381,-17.911 -37.508,-42.319 -41.553,-71.972Z" style="fill-opacity:0.5;"/></svg>