<svg width="1014" height="237" viewBox="0 0 1014 237" fill="none" xmlns="http://www.w3.org/2000/svg">
<path fill-rule="evenodd" clip-rule="evenodd" d="M80.2732 84.9492C79.3032 83.7331 77.965 82.0388 75.7042 79.6188C72.0714 75.7293 70.9327 74.5404 70.892 74.4667C69.2872 71.5368 70.1826 69.2709 65.9865 65.5108C60.8512 60.9099 56.1497 57.8604 51.8812 55.9683C50.7456 55.4877 50.0075 54.3755 50.0075 53.1429L50 53.1407C49.9992 52.0442 50.5723 51.0267 51.5107 50.4567C52.449 49.8874 53.6171 49.8475 54.5916 50.3529C62.2037 54.5244 70.2813 60.1834 70.892 60.6376C74.7057 63.4743 77.7587 63.1742 80.8998 65.5108C82.1537 66.4433 88.6919 72.6543 91.3827 75.7301C123.71 79.5346 153.895 91.3511 174.519 138.761C175.158 140.228 175.16 141.893 174.526 143.362C173.891 144.831 172.677 145.972 171.171 146.516C165.686 148.495 160.409 149.703 155.316 150.223C153.111 161.552 148.342 168.857 141.82 172.588C135.194 176.378 126.271 176.744 115.127 172.835C112.015 177.323 108.113 181.599 103.317 185.636C102.092 186.667 100.496 187.147 98.9045 186.961C97.314 186.775 95.8711 185.94 94.9177 184.655C65.3847 144.827 68.62 113.759 80.2732 84.9492ZM113.73 138.249C100.833 128.152 92.0815 115.664 86.9561 101.087C80.9841 122.068 81.8788 144.885 100.471 172.441C109.759 162.707 113.528 151.495 113.722 139.328C113.722 139.324 113.722 139.32 113.722 139.316C113.728 138.961 113.73 138.605 113.73 138.249ZM120.778 162.545C127.054 164.563 132.134 164.779 136.053 162.537C139.797 160.395 142.113 156.209 143.502 150.199C137.069 149.502 130.933 147.692 125.043 144.972C124.49 151.062 123.124 156.935 120.778 162.545ZM95.2641 87.9452C99.1146 105.203 107.914 119.608 122.765 130.557C134.24 137.772 146.807 140.927 161.15 137.457C144.108 102.61 120.611 91.84 95.2641 87.9452Z" fill="#0F0F0F"/>
<path d="M295.046 93.8984C294.549 89.2464 292.454 85.6243 288.761 83.032C285.103 80.4396 280.344 79.1435 274.485 79.1435C270.366 79.1435 266.832 79.7649 263.885 81.0078C260.938 82.2507 258.683 83.9375 257.12 86.0682C255.558 88.1989 254.759 90.6314 254.723 93.3658C254.723 95.6385 255.238 97.6094 256.268 99.2784C257.333 100.947 258.771 102.368 260.582 103.54C262.393 104.676 264.4 105.635 266.602 106.416C268.803 107.197 271.023 107.854 273.26 108.387L283.487 110.944C287.607 111.903 291.566 113.199 295.366 114.832C299.201 116.466 302.628 118.526 305.646 121.011C308.7 123.497 311.115 126.498 312.891 130.013C314.666 133.529 315.554 137.648 315.554 142.371C315.554 148.763 313.92 154.392 310.653 159.257C307.386 164.087 302.663 167.869 296.484 170.603C290.341 173.302 282.901 174.651 274.165 174.651C265.678 174.651 258.31 173.337 252.06 170.71C245.845 168.082 240.98 164.246 237.464 159.204C233.984 154.161 232.102 148.018 231.818 140.773H251.261C251.545 144.573 252.717 147.734 254.776 150.255C256.836 152.776 259.517 154.658 262.82 155.901C266.158 157.144 269.886 157.766 274.006 157.766C278.303 157.766 282.067 157.126 285.298 155.848C288.565 154.534 291.122 152.723 292.969 150.415C294.815 148.071 295.756 145.337 295.792 142.212C295.756 139.371 294.922 137.027 293.288 135.18C291.655 133.298 289.364 131.736 286.417 130.493C283.505 129.214 280.096 128.078 276.19 127.084L263.778 123.888C254.794 121.58 247.692 118.082 242.472 113.394C237.287 108.671 234.695 102.403 234.695 94.5909C234.695 88.1633 236.435 82.5348 239.915 77.7053C243.43 72.8757 248.207 69.1293 254.244 66.4659C260.281 63.767 267.116 62.4176 274.751 62.4176C282.493 62.4176 289.276 63.767 295.099 66.4659C300.959 69.1293 305.558 72.8402 308.896 77.5987C312.234 82.3217 313.956 87.755 314.062 93.8984H295.046ZM351.602 125.06V173H332.32V91.1818H350.75V105.085H351.709C353.591 100.504 356.592 96.8636 360.711 94.1648C364.866 91.4659 369.997 90.1165 376.105 90.1165C381.752 90.1165 386.67 91.3239 390.86 93.7386C395.086 96.1534 398.353 99.6513 400.661 104.232C403.005 108.813 404.159 114.371 404.124 120.905V173H384.841V123.888C384.841 118.419 383.421 114.14 380.58 111.05C377.774 107.961 373.886 106.416 368.914 106.416C365.541 106.416 362.54 107.162 359.912 108.653C357.32 110.109 355.278 112.222 353.786 114.992C352.33 117.762 351.602 121.118 351.602 125.06ZM459.415 174.598C451.425 174.598 444.5 172.84 438.641 169.325C432.781 165.809 428.236 160.891 425.004 154.57C421.808 148.249 420.21 140.862 420.21 132.411C420.21 123.959 421.808 116.555 425.004 110.198C428.236 103.842 432.781 98.9055 438.641 95.3899C444.5 91.8743 451.425 90.1165 459.415 90.1165C467.405 90.1165 474.33 91.8743 480.189 95.3899C486.048 98.9055 490.576 103.842 493.772 110.198C497.004 116.555 498.619 123.959 498.619 132.411C498.619 140.862 497.004 148.249 493.772 154.57C490.576 160.891 486.048 165.809 480.189 169.325C474.33 172.84 467.405 174.598 459.415 174.598ZM459.521 159.151C463.854 159.151 467.476 157.961 470.388 155.582C473.3 153.167 475.466 149.935 476.887 145.887C478.343 141.839 479.07 137.329 479.07 132.357C479.07 127.35 478.343 122.822 476.887 118.774C475.466 114.69 473.3 111.441 470.388 109.026C467.476 106.612 463.854 105.404 459.521 105.404C455.083 105.404 451.389 106.612 448.442 109.026C445.53 111.441 443.346 114.69 441.89 118.774C440.47 122.822 439.759 127.35 439.759 132.357C439.759 137.329 440.47 141.839 441.89 145.887C443.346 149.935 445.53 153.167 448.442 155.582C451.389 157.961 455.083 159.151 459.521 159.151ZM529.528 173L506.41 91.1818H526.065L540.447 148.71H541.193L555.895 91.1818H575.337L590.039 148.391H590.838L605.007 91.1818H624.716L601.545 173H581.463L566.122 117.709H565.004L549.663 173H529.528ZM666.198 174.438C659.77 174.438 654.017 172.787 648.939 169.484C643.861 166.182 639.848 161.388 636.901 155.102C633.953 148.817 632.48 141.182 632.48 132.197C632.48 123.107 633.971 115.436 636.954 109.186C639.972 102.901 644.039 98.1598 649.152 94.9638C654.266 91.7322 659.965 90.1165 666.251 90.1165C671.045 90.1165 674.987 90.9332 678.076 92.5668C681.166 94.1648 683.616 96.1001 685.427 98.3729C687.238 100.61 688.641 102.723 689.635 104.712H690.434V63.9091H709.77V173H690.807V160.109H689.635C688.641 162.098 687.203 164.211 685.32 166.448C683.438 168.65 680.953 170.532 677.863 172.094C674.774 173.657 670.885 174.438 666.198 174.438ZM671.578 158.618C675.661 158.618 679.142 157.517 682.018 155.315C684.894 153.078 687.078 149.971 688.57 145.994C690.061 142.016 690.807 137.382 690.807 132.091C690.807 126.8 690.061 122.201 688.57 118.295C687.114 114.388 684.948 111.352 682.071 109.186C679.23 107.02 675.732 105.937 671.578 105.937C667.281 105.937 663.694 107.055 660.818 109.293C657.941 111.53 655.775 114.619 654.319 118.561C652.863 122.503 652.135 127.013 652.135 132.091C652.135 137.205 652.863 141.768 654.319 145.781C655.811 149.758 657.994 152.901 660.871 155.209C663.783 157.482 667.352 158.618 671.578 158.618ZM730.318 173V91.1818H749.015V104.818H749.867C751.358 100.095 753.915 96.4553 757.537 93.8984C761.159 91.3061 765.332 90.0099 770.055 90.0099C772.257 90.0099 774.281 90.2763 776.127 90.8089C777.974 91.3416 779.608 92.0696 781.028 92.9929L775.062 108.973C774.032 108.476 772.896 108.067 771.653 107.748C770.41 107.428 769.007 107.268 767.445 107.268C764.107 107.268 761.088 108.014 758.39 109.506C755.691 110.997 753.542 113.075 751.944 115.738C750.382 118.366 749.6 121.42 749.6 124.9V173H730.318ZM824.015 174.598C816.025 174.598 809.1 172.84 803.24 169.325C797.381 165.809 792.836 160.891 789.604 154.57C786.408 148.249 784.81 140.862 784.81 132.411C784.81 123.959 786.408 116.555 789.604 110.198C792.836 103.842 797.381 98.9055 803.24 95.3899C809.1 91.8743 816.025 90.1165 824.015 90.1165C832.005 90.1165 838.929 91.8743 844.789 95.3899C850.648 98.9055 855.176 103.842 858.372 110.198C861.603 116.555 863.219 123.959 863.219 132.411C863.219 140.862 861.603 148.249 858.372 154.57C855.176 160.891 850.648 165.809 844.789 169.325C838.929 172.84 832.005 174.598 824.015 174.598ZM824.121 159.151C828.453 159.151 832.076 157.961 834.988 155.582C837.9 153.167 840.066 149.935 841.486 145.887C842.942 141.839 843.67 137.329 843.67 132.357C843.67 127.35 842.942 122.822 841.486 118.774C840.066 114.69 837.9 111.441 834.988 109.026C832.076 106.612 828.453 105.404 824.121 105.404C819.682 105.404 815.989 106.612 813.042 109.026C810.13 111.441 807.946 114.69 806.49 118.774C805.069 122.822 804.359 127.35 804.359 132.357C804.359 137.329 805.069 141.839 806.49 145.887C807.946 149.935 810.13 153.167 813.042 155.582C815.989 157.961 819.682 159.151 824.121 159.151ZM879.585 203.682V91.1818H898.548V104.712H899.667C900.661 102.723 902.064 100.61 903.875 98.3729C905.686 96.1001 908.137 94.1648 911.226 92.5668C914.316 90.9332 918.257 90.1165 923.051 90.1165C929.372 90.1165 935.072 91.7322 940.15 94.9638C945.264 98.1598 949.312 102.901 952.295 109.186C955.313 115.436 956.823 123.107 956.823 132.197C956.823 141.182 955.349 148.817 952.401 155.102C949.454 161.388 945.441 166.182 940.363 169.484C935.285 172.787 929.532 174.438 923.105 174.438C918.417 174.438 914.529 173.657 911.439 172.094C908.35 170.532 905.864 168.65 903.982 166.448C902.135 164.211 900.697 162.098 899.667 160.109H898.868V203.682H879.585ZM898.495 132.091C898.495 137.382 899.241 142.016 900.732 145.994C902.259 149.971 904.443 153.078 907.284 155.315C910.161 157.517 913.641 158.618 917.725 158.618C921.986 158.618 925.555 157.482 928.431 155.209C931.308 152.901 933.474 149.758 934.93 145.781C936.421 141.768 937.167 137.205 937.167 132.091C937.167 127.013 936.439 122.503 934.983 118.561C933.527 114.619 931.361 111.53 928.485 109.293C925.608 107.055 922.021 105.937 917.725 105.937C913.605 105.937 910.107 107.02 907.231 109.186C904.355 111.352 902.171 114.388 900.679 118.295C899.223 122.201 898.495 126.8 898.495 132.091Z" fill="#0F0F0F"/>
</svg>
