<svg width="976" height="280" viewBox="0 0 976 280" fill="none" xmlns="http://www.w3.org/2000/svg">
<path fill-rule="evenodd" clip-rule="evenodd" d="M80.2732 106.449C79.3032 105.233 77.965 103.539 75.7042 101.119C72.0714 97.2293 70.9327 96.0404 70.892 95.9667C69.2872 93.0368 70.1826 90.7709 65.9865 87.0108C60.8512 82.4099 56.1497 79.3604 51.8812 77.4683C50.7456 76.9877 50.0075 75.8755 50.0075 74.6429L50 74.6407C49.9992 73.5442 50.5723 72.5267 51.5107 71.9567C52.449 71.3874 53.6171 71.3475 54.5916 71.8529C62.2037 76.0244 70.2813 81.6834 70.892 82.1376C74.7057 84.9743 77.7587 84.6742 80.8998 87.0108C82.1537 87.9433 88.6919 94.1543 91.3827 97.2301C123.71 101.035 153.895 112.851 174.519 160.261C175.158 161.728 175.16 163.393 174.526 164.862C173.891 166.331 172.677 167.472 171.171 168.016C165.686 169.995 160.409 171.203 155.316 171.723C153.111 183.052 148.342 190.357 141.82 194.088C135.194 197.878 126.271 198.244 115.127 194.335C112.015 198.823 108.113 203.099 103.317 207.136C102.092 208.167 100.496 208.647 98.9045 208.461C97.314 208.275 95.8711 207.44 94.9177 206.155C65.3847 166.327 68.62 135.259 80.2732 106.449ZM113.73 159.749C100.833 149.652 92.0816 137.164 86.9561 122.587C80.9841 143.568 81.8788 166.385 100.471 193.941C109.759 184.207 113.528 172.995 113.722 160.828C113.722 160.824 113.722 160.82 113.722 160.816C113.728 160.461 113.73 160.105 113.73 159.749ZM120.778 184.045C127.054 186.063 132.134 186.279 136.053 184.037C139.797 181.895 142.113 177.709 143.502 171.699C137.068 171.002 130.933 169.192 125.043 166.472C124.49 172.562 123.124 178.435 120.778 184.045ZM95.2641 109.445C99.1146 126.703 107.914 141.108 122.765 152.057C134.24 159.272 146.807 162.427 161.15 158.957C144.108 124.11 120.611 113.34 95.2641 109.445Z" fill="white"/>
<path d="M271.95 194.8C266.45 194.8 261.4 194.15 256.8 192.85C252.3 191.55 248.3 189.75 244.8 187.45C241.4 185.15 238.55 182.6 236.25 179.8C234.05 176.9 232.5 173.9 231.6 170.8L248.7 165.55C250 169.25 252.55 172.5 256.35 175.3C260.15 178.1 264.85 179.55 270.45 179.65C276.95 179.65 282.1 178.3 285.9 175.6C289.7 172.9 291.6 169.35 291.6 164.95C291.6 160.95 290 157.7 286.8 155.2C283.6 152.6 279.3 150.6 273.9 149.2L261 145.9C256.1 144.6 251.65 142.7 247.65 140.2C243.75 137.7 240.65 134.55 238.35 130.75C236.15 126.95 235.05 122.45 235.05 117.25C235.05 107.45 238.25 99.85 244.65 94.45C251.05 88.95 260.2 86.2 272.1 86.2C278.8 86.2 284.65 87.25 289.65 89.35C294.75 91.35 298.95 94.15 302.25 97.75C305.55 101.25 308 105.25 309.6 109.75L292.8 115.15C291.3 111.15 288.7 107.85 285 105.25C281.3 102.65 276.7 101.35 271.2 101.35C265.5 101.35 261 102.7 257.7 105.4C254.5 108.1 252.9 111.85 252.9 116.65C252.9 120.55 254.15 123.6 256.65 125.8C259.25 127.9 262.75 129.5 267.15 130.6L280.05 133.75C289.45 136.05 296.75 140 301.95 145.6C307.15 151.2 309.75 157.4 309.75 164.2C309.75 170.2 308.3 175.5 305.4 180.1C302.5 184.7 298.2 188.3 292.5 190.9C286.9 193.5 280.05 194.8 271.95 194.8ZM325.853 193V118H341.603L342.353 128.65C344.753 124.65 347.853 121.6 351.653 119.5C355.553 117.3 360.003 116.2 365.003 116.2C371.003 116.2 376.103 117.4 380.303 119.8C384.603 122.2 387.853 125.95 390.053 131.05C392.353 136.05 393.503 142.6 393.503 150.7V193H376.703V154.6C376.703 148.6 376.003 144 374.603 140.8C373.303 137.5 371.403 135.2 368.903 133.9C366.503 132.6 363.653 131.95 360.353 131.95C354.753 131.85 350.403 133.7 347.303 137.5C344.203 141.3 342.653 146.75 342.653 153.85V193H325.853ZM445.021 194.8C437.521 194.8 430.821 193.15 424.921 189.85C419.121 186.45 414.571 181.8 411.271 175.9C407.971 170 406.321 163.2 406.321 155.5C406.321 147.8 407.921 141 411.121 135.1C414.421 129.2 418.971 124.6 424.771 121.3C430.571 117.9 437.221 116.2 444.721 116.2C452.221 116.2 458.871 117.9 464.671 121.3C470.471 124.6 474.971 129.2 478.171 135.1C481.471 141 483.121 147.8 483.121 155.5C483.121 163.2 481.521 170 478.321 175.9C475.121 181.8 470.621 186.45 464.821 189.85C459.021 193.15 452.421 194.8 445.021 194.8ZM445.021 179.35C449.121 179.35 452.771 178.35 455.971 176.35C459.171 174.25 461.671 171.45 463.471 167.95C465.271 164.35 466.171 160.2 466.171 155.5C466.171 150.8 465.221 146.7 463.321 143.2C461.521 139.6 459.021 136.8 455.821 134.8C452.621 132.7 448.921 131.65 444.721 131.65C440.521 131.65 436.821 132.65 433.621 134.65C430.421 136.65 427.921 139.45 426.121 143.05C424.321 146.65 423.421 150.8 423.421 155.5C423.421 160.2 424.321 164.35 426.121 167.95C428.021 171.45 430.571 174.25 433.771 176.35C437.071 178.35 440.821 179.35 445.021 179.35ZM512.596 193L487.096 118H504.046L521.296 170.2L538.546 118H555.046L572.146 169.45L589.396 118H606.346L580.846 193H564.196L546.796 139.15L529.246 193H512.596ZM644.859 194.8C638.059 194.8 632.109 193.2 627.009 190C622.009 186.7 618.059 182.1 615.159 176.2C612.359 170.3 610.959 163.4 610.959 155.5C610.959 147.5 612.359 140.6 615.159 134.8C618.059 128.9 622.009 124.35 627.009 121.15C632.109 117.85 638.059 116.2 644.859 116.2C650.059 116.2 654.659 117.35 658.659 119.65C662.659 121.85 665.959 125 668.559 129.1V88H685.209V193H669.309L668.709 181.6C666.209 185.8 662.909 189.05 658.809 191.35C654.809 193.65 650.159 194.8 644.859 194.8ZM649.059 179.5C652.759 179.5 656.059 178.55 658.959 176.65C661.859 174.65 664.109 171.95 665.709 168.55C667.409 165.05 668.359 161.05 668.559 156.55V154.45C668.359 149.95 667.409 146 665.709 142.6C664.109 139.1 661.859 136.4 658.959 134.5C656.059 132.6 652.709 131.65 648.909 131.65C644.909 131.65 641.309 132.65 638.109 134.65C635.009 136.65 632.559 139.45 630.759 143.05C629.059 146.65 628.209 150.8 628.209 155.5C628.209 160.2 629.109 164.35 630.909 167.95C632.709 171.55 635.159 174.4 638.259 176.5C641.459 178.5 645.059 179.5 649.059 179.5ZM703.782 193V118H720.582V131.65C723.582 126.95 727.482 123.45 732.282 121.15C737.082 118.85 742.032 117.7 747.132 117.7V133.75C742.532 133.75 738.182 134.4 734.082 135.7C730.082 136.9 726.832 138.9 724.332 141.7C721.832 144.5 720.582 148.2 720.582 152.8V193H703.782ZM792.775 194.8C785.275 194.8 778.575 193.15 772.675 189.85C766.875 186.45 762.325 181.8 759.025 175.9C755.725 170 754.075 163.2 754.075 155.5C754.075 147.8 755.675 141 758.875 135.1C762.175 129.2 766.725 124.6 772.525 121.3C778.325 117.9 784.975 116.2 792.475 116.2C799.975 116.2 806.625 117.9 812.425 121.3C818.225 124.6 822.725 129.2 825.925 135.1C829.225 141 830.875 147.8 830.875 155.5C830.875 163.2 829.275 170 826.075 175.9C822.875 181.8 818.375 186.45 812.575 189.85C806.775 193.15 800.175 194.8 792.775 194.8ZM792.775 179.35C796.875 179.35 800.525 178.35 803.725 176.35C806.925 174.25 809.425 171.45 811.225 167.95C813.025 164.35 813.925 160.2 813.925 155.5C813.925 150.8 812.975 146.7 811.075 143.2C809.275 139.6 806.775 136.8 803.575 134.8C800.375 132.7 796.675 131.65 792.475 131.65C788.275 131.65 784.575 132.65 781.375 134.65C778.175 136.65 775.675 139.45 773.875 143.05C772.075 146.65 771.175 150.8 771.175 155.5C771.175 160.2 772.075 164.35 773.875 167.95C775.775 171.45 778.325 174.25 781.525 176.35C784.825 178.35 788.575 179.35 792.775 179.35ZM846.183 223V118H861.933L862.683 129.4C865.283 125.2 868.583 121.95 872.583 119.65C876.683 117.35 881.383 116.2 886.683 116.2C893.483 116.2 899.383 117.85 904.383 121.15C909.483 124.35 913.433 128.9 916.233 134.8C919.133 140.6 920.583 147.5 920.583 155.5C920.583 163.4 919.133 170.3 916.233 176.2C913.433 182.1 909.483 186.7 904.383 190C899.383 193.2 893.483 194.8 886.683 194.8C881.483 194.8 876.883 193.65 872.883 191.35C868.883 189.05 865.583 185.9 862.983 181.9V223H846.183ZM882.483 179.5C886.483 179.5 890.033 178.5 893.133 176.5C896.233 174.4 898.683 171.55 900.483 167.95C902.383 164.35 903.333 160.2 903.333 155.5C903.333 150.8 902.433 146.65 900.633 143.05C898.933 139.45 896.533 136.65 893.433 134.65C890.333 132.65 886.733 131.65 882.633 131.65C878.833 131.65 875.433 132.65 872.433 134.65C869.433 136.65 867.083 139.45 865.383 143.05C863.783 146.65 862.983 150.8 862.983 155.5C862.983 160.2 863.783 164.35 865.383 167.95C867.083 171.55 869.383 174.4 872.283 176.5C875.283 178.5 878.683 179.5 882.483 179.5Z" fill="white"/>
</svg>
