<svg width="976" height="237" viewBox="0 0 976 237" fill="none" xmlns="http://www.w3.org/2000/svg">
<path fill-rule="evenodd" clip-rule="evenodd" d="M80.2732 84.9492C79.3032 83.7331 77.965 82.0388 75.7042 79.6188C72.0714 75.7293 70.9327 74.5404 70.892 74.4667C69.2872 71.5368 70.1826 69.2709 65.9865 65.5108C60.8512 60.9099 56.1497 57.8604 51.8812 55.9683C50.7456 55.4877 50.0075 54.3755 50.0075 53.1429L50 53.1407C49.9992 52.0442 50.5723 51.0267 51.5107 50.4567C52.449 49.8874 53.6171 49.8475 54.5916 50.3529C62.2037 54.5244 70.2813 60.1834 70.892 60.6376C74.7057 63.4743 77.7587 63.1742 80.8998 65.5108C82.1537 66.4433 88.6919 72.6543 91.3827 75.7301C123.71 79.5346 153.895 91.3511 174.519 138.761C175.158 140.228 175.16 141.893 174.526 143.362C173.891 144.831 172.677 145.972 171.171 146.516C165.686 148.495 160.409 149.703 155.316 150.223C153.111 161.552 148.342 168.857 141.82 172.588C135.194 176.378 126.271 176.744 115.127 172.835C112.015 177.323 108.113 181.599 103.317 185.636C102.092 186.667 100.496 187.147 98.9045 186.961C97.314 186.775 95.8711 185.94 94.9177 184.655C65.3847 144.827 68.62 113.759 80.2732 84.9492ZM113.73 138.249C100.833 128.152 92.0816 115.664 86.9561 101.087C80.9841 122.068 81.8788 144.885 100.471 172.441C109.759 162.707 113.528 151.495 113.722 139.328C113.722 139.324 113.722 139.32 113.722 139.316C113.728 138.961 113.73 138.605 113.73 138.249ZM120.778 162.545C127.054 164.563 132.134 164.779 136.053 162.537C139.797 160.395 142.113 156.209 143.502 150.199C137.068 149.502 130.933 147.692 125.043 144.972C124.49 151.062 123.124 156.935 120.778 162.545ZM95.2641 87.9452C99.1146 105.203 107.914 119.608 122.765 130.557C134.24 137.772 146.807 140.927 161.15 137.457C144.108 102.61 120.611 91.84 95.2641 87.9452Z" fill="black"/>
<path d="M271.95 172.8C266.45 172.8 261.4 172.15 256.8 170.85C252.3 169.55 248.3 167.75 244.8 165.45C241.4 163.15 238.55 160.6 236.25 157.8C234.05 154.9 232.5 151.9 231.6 148.8L248.7 143.55C250 147.25 252.55 150.5 256.35 153.3C260.15 156.1 264.85 157.55 270.45 157.65C276.95 157.65 282.1 156.3 285.9 153.6C289.7 150.9 291.6 147.35 291.6 142.95C291.6 138.95 290 135.7 286.8 133.2C283.6 130.6 279.3 128.6 273.9 127.2L261 123.9C256.1 122.6 251.65 120.7 247.65 118.2C243.75 115.7 240.65 112.55 238.35 108.75C236.15 104.95 235.05 100.45 235.05 95.25C235.05 85.45 238.25 77.85 244.65 72.45C251.05 66.95 260.2 64.2 272.1 64.2C278.8 64.2 284.65 65.25 289.65 67.35C294.75 69.35 298.95 72.15 302.25 75.75C305.55 79.25 308 83.25 309.6 87.75L292.8 93.15C291.3 89.15 288.7 85.85 285 83.25C281.3 80.65 276.7 79.35 271.2 79.35C265.5 79.35 261 80.7 257.7 83.4C254.5 86.1 252.9 89.85 252.9 94.65C252.9 98.55 254.15 101.6 256.65 103.8C259.25 105.9 262.75 107.5 267.15 108.6L280.05 111.75C289.45 114.05 296.75 118 301.95 123.6C307.15 129.2 309.75 135.4 309.75 142.2C309.75 148.2 308.3 153.5 305.4 158.1C302.5 162.7 298.2 166.3 292.5 168.9C286.9 171.5 280.05 172.8 271.95 172.8ZM325.853 171V96H341.603L342.353 106.65C344.753 102.65 347.853 99.6 351.653 97.5C355.553 95.3 360.003 94.2 365.003 94.2C371.003 94.2 376.103 95.4 380.303 97.8C384.603 100.2 387.853 103.95 390.053 109.05C392.353 114.05 393.503 120.6 393.503 128.7V171H376.703V132.6C376.703 126.6 376.003 122 374.603 118.8C373.303 115.5 371.403 113.2 368.903 111.9C366.503 110.6 363.653 109.95 360.353 109.95C354.753 109.85 350.403 111.7 347.303 115.5C344.203 119.3 342.653 124.75 342.653 131.85V171H325.853ZM445.021 172.8C437.521 172.8 430.821 171.15 424.921 167.85C419.121 164.45 414.571 159.8 411.271 153.9C407.971 148 406.321 141.2 406.321 133.5C406.321 125.8 407.921 119 411.121 113.1C414.421 107.2 418.971 102.6 424.771 99.3C430.571 95.9 437.221 94.2 444.721 94.2C452.221 94.2 458.871 95.9 464.671 99.3C470.471 102.6 474.971 107.2 478.171 113.1C481.471 119 483.121 125.8 483.121 133.5C483.121 141.2 481.521 148 478.321 153.9C475.121 159.8 470.621 164.45 464.821 167.85C459.021 171.15 452.421 172.8 445.021 172.8ZM445.021 157.35C449.121 157.35 452.771 156.35 455.971 154.35C459.171 152.25 461.671 149.45 463.471 145.95C465.271 142.35 466.171 138.2 466.171 133.5C466.171 128.8 465.221 124.7 463.321 121.2C461.521 117.6 459.021 114.8 455.821 112.8C452.621 110.7 448.921 109.65 444.721 109.65C440.521 109.65 436.821 110.65 433.621 112.65C430.421 114.65 427.921 117.45 426.121 121.05C424.321 124.65 423.421 128.8 423.421 133.5C423.421 138.2 424.321 142.35 426.121 145.95C428.021 149.45 430.571 152.25 433.771 154.35C437.071 156.35 440.821 157.35 445.021 157.35ZM512.596 171L487.096 96H504.046L521.296 148.2L538.546 96H555.046L572.146 147.45L589.396 96H606.346L580.846 171H564.196L546.796 117.15L529.246 171H512.596ZM644.859 172.8C638.059 172.8 632.109 171.2 627.009 168C622.009 164.7 618.059 160.1 615.159 154.2C612.359 148.3 610.959 141.4 610.959 133.5C610.959 125.5 612.359 118.6 615.159 112.8C618.059 106.9 622.009 102.35 627.009 99.15C632.109 95.85 638.059 94.2 644.859 94.2C650.059 94.2 654.659 95.35 658.659 97.65C662.659 99.85 665.959 103 668.559 107.1V66H685.209V171H669.309L668.709 159.6C666.209 163.8 662.909 167.05 658.809 169.35C654.809 171.65 650.159 172.8 644.859 172.8ZM649.059 157.5C652.759 157.5 656.059 156.55 658.959 154.65C661.859 152.65 664.109 149.95 665.709 146.55C667.409 143.05 668.359 139.05 668.559 134.55V132.45C668.359 127.95 667.409 124 665.709 120.6C664.109 117.1 661.859 114.4 658.959 112.5C656.059 110.6 652.709 109.65 648.909 109.65C644.909 109.65 641.309 110.65 638.109 112.65C635.009 114.65 632.559 117.45 630.759 121.05C629.059 124.65 628.209 128.8 628.209 133.5C628.209 138.2 629.109 142.35 630.909 145.95C632.709 149.55 635.159 152.4 638.259 154.5C641.459 156.5 645.059 157.5 649.059 157.5ZM703.782 171V96H720.582V109.65C723.582 104.95 727.482 101.45 732.282 99.15C737.082 96.85 742.032 95.7 747.132 95.7V111.75C742.532 111.75 738.182 112.4 734.082 113.7C730.082 114.9 726.832 116.9 724.332 119.7C721.832 122.5 720.582 126.2 720.582 130.8V171H703.782ZM792.775 172.8C785.275 172.8 778.575 171.15 772.675 167.85C766.875 164.45 762.325 159.8 759.025 153.9C755.725 148 754.075 141.2 754.075 133.5C754.075 125.8 755.675 119 758.875 113.1C762.175 107.2 766.725 102.6 772.525 99.3C778.325 95.9 784.975 94.2 792.475 94.2C799.975 94.2 806.625 95.9 812.425 99.3C818.225 102.6 822.725 107.2 825.925 113.1C829.225 119 830.875 125.8 830.875 133.5C830.875 141.2 829.275 148 826.075 153.9C822.875 159.8 818.375 164.45 812.575 167.85C806.775 171.15 800.175 172.8 792.775 172.8ZM792.775 157.35C796.875 157.35 800.525 156.35 803.725 154.35C806.925 152.25 809.425 149.45 811.225 145.95C813.025 142.35 813.925 138.2 813.925 133.5C813.925 128.8 812.975 124.7 811.075 121.2C809.275 117.6 806.775 114.8 803.575 112.8C800.375 110.7 796.675 109.65 792.475 109.65C788.275 109.65 784.575 110.65 781.375 112.65C778.175 114.65 775.675 117.45 773.875 121.05C772.075 124.65 771.175 128.8 771.175 133.5C771.175 138.2 772.075 142.35 773.875 145.95C775.775 149.45 778.325 152.25 781.525 154.35C784.825 156.35 788.575 157.35 792.775 157.35ZM846.183 201V96H861.933L862.683 107.4C865.283 103.2 868.583 99.95 872.583 97.65C876.683 95.35 881.383 94.2 886.683 94.2C893.483 94.2 899.383 95.85 904.383 99.15C909.483 102.35 913.433 106.9 916.233 112.8C919.133 118.6 920.583 125.5 920.583 133.5C920.583 141.4 919.133 148.3 916.233 154.2C913.433 160.1 909.483 164.7 904.383 168C899.383 171.2 893.483 172.8 886.683 172.8C881.483 172.8 876.883 171.65 872.883 169.35C868.883 167.05 865.583 163.9 862.983 159.9V201H846.183ZM882.483 157.5C886.483 157.5 890.033 156.5 893.133 154.5C896.233 152.4 898.683 149.55 900.483 145.95C902.383 142.35 903.333 138.2 903.333 133.5C903.333 128.8 902.433 124.65 900.633 121.05C898.933 117.45 896.533 114.65 893.433 112.65C890.333 110.65 886.733 109.65 882.633 109.65C878.833 109.65 875.433 110.65 872.433 112.65C869.433 114.65 867.083 117.45 865.383 121.05C863.783 124.65 862.983 128.8 862.983 133.5C862.983 138.2 863.783 142.35 865.383 145.95C867.083 149.55 869.383 152.4 872.283 154.5C875.283 156.5 878.683 157.5 882.483 157.5Z" fill="black"/>
</svg>
