<svg width="1055" height="283" viewBox="0 0 1055 283" fill="none" xmlns="http://www.w3.org/2000/svg">
<path fill-rule="evenodd" clip-rule="evenodd" d="M90.199 96.4733C88.911 94.8563 87.134 92.6033 84.132 89.3853C79.308 84.2133 77.796 82.6323 77.742 82.5343C75.611 78.6383 76.8 75.6253 71.228 70.6253C64.409 64.5073 58.166 60.4523 52.498 57.9363C50.99 57.2973 50.01 55.8183 50.01 54.1793L50 54.1763C49.999 52.7183 50.76 51.3653 52.006 50.6073C53.252 49.8503 54.803 49.7973 56.097 50.4693C66.205 56.0163 76.931 63.5413 77.742 64.1453C82.806 67.9173 86.86 67.5183 91.031 70.6253C92.696 71.8653 101.378 80.1243 104.951 84.2143C147.877 89.2733 187.959 104.986 215.346 168.029C216.194 169.98 216.197 172.194 215.355 174.147C214.512 176.1 212.9 177.618 210.9 178.341C203.617 180.973 196.609 182.579 189.847 183.27C186.919 198.335 180.586 208.049 171.925 213.01C163.127 218.05 151.278 218.537 136.481 213.339C132.348 219.306 127.167 224.992 120.798 230.361C119.172 231.732 117.052 232.369 114.939 232.122C112.827 231.875 110.911 230.765 109.645 229.056C70.429 176.095 74.725 134.782 90.199 96.4733ZM134.625 167.348C117.5 153.921 105.879 137.316 99.073 117.932C91.143 145.832 92.331 176.172 117.019 212.814C129.352 199.871 134.357 184.962 134.615 168.783C134.615 168.778 134.615 168.772 134.615 168.767C134.623 168.295 134.626 167.822 134.625 167.348ZM143.984 199.655C152.318 202.339 159.064 202.626 164.268 199.645C169.239 196.797 172.315 191.23 174.159 183.239C165.616 182.311 157.469 179.905 149.647 176.288C148.913 184.386 147.099 192.195 143.984 199.655ZM110.105 100.457C115.218 123.405 126.902 142.56 146.623 157.119C161.86 166.714 178.548 170.909 197.593 166.295C174.963 119.957 143.763 105.636 110.105 100.457Z" fill="#0F0F0F"/>
<path d="M336.031 116.486C335.533 111.834 333.438 108.211 329.745 105.619C326.087 103.027 321.329 101.731 315.469 101.731C311.35 101.731 307.817 102.352 304.869 103.595C301.922 104.838 299.667 106.525 298.104 108.655C296.542 110.786 295.743 113.219 295.707 115.953C295.707 118.226 296.222 120.197 297.252 121.866C298.317 123.535 299.756 124.955 301.567 126.127C303.378 127.263 305.384 128.222 307.586 129.003C309.788 129.785 312.007 130.442 314.244 130.974L324.472 133.531C328.591 134.49 332.55 135.786 336.35 137.42C340.185 139.053 343.612 141.113 346.631 143.599C349.685 146.084 352.099 149.085 353.875 152.601C355.651 156.116 356.538 160.236 356.538 164.959C356.538 171.351 354.905 176.979 351.638 181.844C348.371 186.674 343.648 190.456 337.469 193.19C331.325 195.889 323.886 197.238 315.15 197.238C306.663 197.238 299.294 195.925 293.044 193.297C286.83 190.669 281.964 186.834 278.449 181.791C274.969 176.748 273.087 170.605 272.803 163.361H292.245C292.529 167.16 293.701 170.321 295.761 172.842C297.82 175.363 300.501 177.246 303.804 178.488C307.142 179.731 310.871 180.353 314.99 180.353C319.287 180.353 323.051 179.714 326.283 178.435C329.55 177.121 332.107 175.31 333.953 173.002C335.8 170.658 336.741 167.924 336.776 164.799C336.741 161.958 335.906 159.614 334.273 157.768C332.639 155.885 330.349 154.323 327.401 153.08C324.489 151.802 321.08 150.665 317.174 149.671L304.763 146.475C295.778 144.167 288.676 140.669 283.456 135.981C278.271 131.258 275.679 124.991 275.679 117.178C275.679 110.751 277.419 105.122 280.899 100.292C284.415 95.4629 289.191 91.7164 295.228 89.0531C301.265 86.3542 308.101 85.0048 315.736 85.0048C323.477 85.0048 330.26 86.3542 336.084 89.0531C341.943 91.7164 346.542 95.4274 349.88 100.186C353.218 104.909 354.94 110.342 355.047 116.486H336.031ZM392.587 147.647V195.587H373.304V113.769H391.735V127.672H392.693C394.575 123.091 397.576 119.451 401.695 116.752C405.85 114.053 410.982 112.704 417.09 112.704C422.736 112.704 427.654 113.911 431.845 116.326C436.07 118.741 439.338 122.238 441.646 126.819C443.99 131.4 445.144 136.958 445.108 143.492V195.587H425.825V146.475C425.825 141.006 424.405 136.727 421.564 133.638C418.759 130.548 414.87 129.003 409.899 129.003C406.525 129.003 403.524 129.749 400.896 131.241C398.304 132.697 396.262 134.809 394.771 137.579C393.315 140.349 392.587 143.705 392.587 147.647ZM500.399 197.185C492.409 197.185 485.485 195.427 479.625 191.912C473.766 188.396 469.22 183.478 465.989 177.157C462.793 170.836 461.195 163.449 461.195 154.998C461.195 146.546 462.793 139.142 465.989 132.785C469.22 126.429 473.766 121.493 479.625 117.977C485.485 114.461 492.409 112.704 500.399 112.704C508.389 112.704 515.314 114.461 521.173 117.977C527.033 121.493 531.561 126.429 534.757 132.785C537.988 139.142 539.604 146.546 539.604 154.998C539.604 163.449 537.988 170.836 534.757 177.157C531.561 183.478 527.033 188.396 521.173 191.912C515.314 195.427 508.389 197.185 500.399 197.185ZM500.506 181.738C504.838 181.738 508.46 180.548 511.372 178.169C514.284 175.754 516.45 172.523 517.871 168.474C519.327 164.426 520.055 159.916 520.055 154.944C520.055 149.937 519.327 145.41 517.871 141.361C516.45 137.278 514.284 134.028 511.372 131.613C508.46 129.199 504.838 127.991 500.506 127.991C496.067 127.991 492.374 129.199 489.426 131.613C486.514 134.028 484.33 137.278 482.874 141.361C481.454 145.41 480.744 149.937 480.744 154.944C480.744 159.916 481.454 164.426 482.874 168.474C484.33 172.523 486.514 175.754 489.426 178.169C492.374 180.548 496.067 181.738 500.506 181.738ZM570.512 195.587L547.394 113.769H567.05L581.432 171.297H582.178L596.879 113.769H616.322L631.023 170.978H631.822L645.991 113.769H665.7L642.529 195.587H622.447L607.107 140.296H605.988L590.647 195.587H570.512ZM707.182 197.025C700.754 197.025 695.002 195.374 689.923 192.072C684.845 188.769 680.833 183.975 677.885 177.689C674.938 171.404 673.464 163.769 673.464 154.785C673.464 145.694 674.955 138.023 677.938 131.773C680.957 125.488 685.023 120.747 690.137 117.551C695.25 114.319 700.95 112.704 707.235 112.704C712.029 112.704 715.971 113.52 719.061 115.154C722.15 116.752 724.6 118.687 726.411 120.96C728.222 123.197 729.625 125.31 730.619 127.299H731.419V86.4963H750.754V195.587H731.791V182.697H730.619C729.625 184.685 728.187 186.798 726.305 189.035C724.423 191.237 721.937 193.119 718.847 194.682C715.758 196.244 711.869 197.025 707.182 197.025ZM712.562 181.205C716.646 181.205 720.126 180.104 723.002 177.903C725.879 175.665 728.063 172.558 729.554 168.581C731.046 164.604 731.791 159.969 731.791 154.678C731.791 149.387 731.046 144.788 729.554 140.882C728.098 136.976 725.932 133.939 723.056 131.773C720.215 129.607 716.717 128.524 712.562 128.524C708.265 128.524 704.678 129.643 701.802 131.88C698.926 134.117 696.759 137.207 695.303 141.148C693.847 145.09 693.119 149.6 693.119 154.678C693.119 159.792 693.847 164.355 695.303 168.368C696.795 172.345 698.979 175.488 701.855 177.796C704.767 180.069 708.336 181.205 712.562 181.205ZM771.302 195.587V113.769H789.999V127.405H790.851C792.343 122.682 794.9 119.042 798.522 116.486C802.144 113.893 806.316 112.597 811.039 112.597C813.241 112.597 815.265 112.863 817.112 113.396C818.958 113.929 820.592 114.657 822.012 115.58L816.047 131.56C815.017 131.063 813.88 130.655 812.637 130.335C811.395 130.015 809.992 129.856 808.429 129.856C805.091 129.856 802.073 130.601 799.374 132.093C796.675 133.584 794.527 135.662 792.929 138.325C791.366 140.953 790.585 144.007 790.585 147.487V195.587H771.302ZM864.999 197.185C857.009 197.185 850.084 195.427 844.225 191.912C838.365 188.396 833.82 183.478 830.588 177.157C827.392 170.836 825.794 163.449 825.794 154.998C825.794 146.546 827.392 139.142 830.588 132.785C833.82 126.429 838.365 121.493 844.225 117.977C850.084 114.461 857.009 112.704 864.999 112.704C872.989 112.704 879.914 114.461 885.773 117.977C891.632 121.493 896.16 126.429 899.356 132.785C902.588 139.142 904.203 146.546 904.203 154.998C904.203 163.449 902.588 170.836 899.356 177.157C896.16 183.478 891.632 188.396 885.773 191.912C879.914 195.427 872.989 197.185 864.999 197.185ZM865.105 181.738C869.438 181.738 873.06 180.548 875.972 178.169C878.884 175.754 881.05 172.523 882.471 168.474C883.926 164.426 884.654 159.916 884.654 154.944C884.654 149.937 883.926 145.41 882.471 141.361C881.05 137.278 878.884 134.028 875.972 131.613C873.06 129.199 869.438 127.991 865.105 127.991C860.667 127.991 856.973 129.199 854.026 131.613C851.114 134.028 848.93 137.278 847.474 141.361C846.054 145.41 845.343 149.937 845.343 154.944C845.343 159.916 846.054 164.426 847.474 168.474C848.93 172.523 851.114 175.754 854.026 178.169C856.973 180.548 860.667 181.738 865.105 181.738ZM920.57 226.269V113.769H939.533V127.299H940.651C941.646 125.31 943.048 123.197 944.86 120.96C946.671 118.687 949.121 116.752 952.21 115.154C955.3 113.52 959.242 112.704 964.036 112.704C970.357 112.704 976.056 114.319 981.134 117.551C986.248 120.747 990.296 125.488 993.279 131.773C996.298 138.023 997.807 145.694 997.807 154.785C997.807 163.769 996.333 171.404 993.386 177.689C990.438 183.975 986.426 188.769 981.347 192.072C976.269 195.374 970.517 197.025 964.089 197.025C959.401 197.025 955.513 196.244 952.423 194.682C949.334 193.119 946.848 191.237 944.966 189.035C943.119 186.798 941.681 184.685 940.651 182.697H939.852V226.269H920.57ZM939.48 154.678C939.48 159.969 940.225 164.604 941.717 168.581C943.244 172.558 945.428 175.665 948.269 177.903C951.145 180.104 954.625 181.205 958.709 181.205C962.97 181.205 966.539 180.069 969.416 177.796C972.292 175.488 974.458 172.345 975.914 168.368C977.406 164.355 978.151 159.792 978.151 154.678C978.151 149.6 977.423 145.09 975.968 141.148C974.512 137.207 972.345 134.117 969.469 131.88C966.593 129.643 963.006 128.524 958.709 128.524C954.59 128.524 951.092 129.607 948.215 131.773C945.339 133.939 943.155 136.976 941.664 140.882C940.208 144.788 939.48 149.387 939.48 154.678Z" fill="#0F0F0F"/>
</svg>
