<svg width="256" height="256" viewBox="0 0 256 256" fill="none" xmlns="http://www.w3.org/2000/svg">
<g clip-path="url(#clip0_8_2)">
<path fill-rule="evenodd" clip-rule="evenodd" d="M85.207 83.386C83.919 81.769 82.142 79.516 79.14 76.298C74.316 71.126 72.804 69.545 72.75 69.447C70.619 65.551 71.808 62.538 66.236 57.538C59.417 51.42 53.174 47.365 47.506 44.849C45.998 44.21 45.018 42.731 45.018 41.092L45.008 41.089C45.007 39.631 45.768 38.278 47.014 37.52C48.26 36.763 49.811 36.71 51.105 37.382C61.213 42.929 71.939 50.454 72.75 51.058C77.814 54.83 81.868 54.431 86.039 57.538C87.704 58.778 96.386 67.037 99.959 71.127C142.885 76.186 182.967 91.899 210.354 154.942C211.202 156.893 211.205 159.107 210.363 161.06C209.52 163.013 207.908 164.531 205.908 165.254C198.625 167.886 191.617 169.492 184.855 170.183C181.927 185.248 175.594 194.962 166.933 199.923C158.135 204.963 146.286 205.45 131.489 200.252C127.356 206.219 122.175 211.905 115.806 217.274C114.18 218.645 112.06 219.282 109.947 219.035C107.835 218.788 105.919 217.678 104.653 215.969C65.437 163.008 69.733 121.695 85.207 83.386ZM129.633 154.261C112.508 140.834 100.887 124.229 94.081 104.845C86.151 132.745 87.339 163.085 112.027 199.727C124.36 186.784 129.365 171.875 129.623 155.696C129.623 155.691 129.623 155.685 129.623 155.68C129.631 155.208 129.634 154.735 129.633 154.261ZM138.992 186.568C147.326 189.252 154.072 189.539 159.276 186.558C164.247 183.71 167.323 178.143 169.167 170.152C160.624 169.224 152.477 166.818 144.655 163.201C143.921 171.299 142.107 179.108 138.992 186.568ZM105.113 87.37C110.226 110.318 121.91 129.473 141.631 144.032C156.868 153.627 173.556 157.822 192.601 153.208C169.971 106.87 138.771 92.549 105.113 87.37Z" fill="black"/>
</g>
<defs>
<clipPath id="clip0_8_2">
<rect width="256" height="256" fill="white"/>
</clipPath>
</defs>
</svg>
