<svg width="256" height="256" viewBox="0 0 256 256" fill="none" xmlns="http://www.w3.org/2000/svg">
<g clip-path="url(#clip0_9_17)">
<path fill-rule="evenodd" clip-rule="evenodd" d="M96.8039 89.8553C95.5159 88.2383 93.7389 85.9853 90.7369 82.7673C85.9129 77.5953 84.4009 76.0143 84.3469 75.9163C82.2159 72.0203 83.4049 69.0072 77.8329 64.0072C71.0139 57.8892 58.597 48.7242 35.498 38.9362C33.99 38.2972 33.01 36.8182 33.01 35.1792L33 35.1762C32.999 33.7182 33.76 32.3652 35.006 31.6072C36.252 30.8502 37.803 30.7972 39.097 31.4692C61.597 40.9692 83.5359 56.9232 84.3469 57.5272C89.4109 61.2992 93.4649 60.9002 97.6359 64.0072C99.3009 65.2472 107.983 73.5063 111.556 77.5963C154.482 82.6553 194.564 98.3683 221.951 161.411C222.799 163.362 222.802 165.576 221.96 167.529C221.117 169.482 219.505 171 217.505 171.723C210.222 174.355 203.214 175.961 196.452 176.652C193.524 191.717 187.191 201.431 178.53 206.392C169.732 211.432 157.883 211.919 143.086 206.721C138.953 212.688 133.772 218.374 127.403 223.743C125.777 225.114 123.657 225.751 121.544 225.504C119.432 225.257 117.516 224.147 116.25 222.438C77.0339 169.477 81.3299 128.164 96.8039 89.8553ZM141.23 160.73C124.105 147.303 112.484 130.698 105.678 111.314C97.7479 139.214 98.9359 169.554 123.624 206.196C135.957 193.253 140.962 178.344 141.22 162.165C141.22 162.16 141.22 162.154 141.22 162.149C141.228 161.677 141.231 161.204 141.23 160.73ZM150.589 193.037C158.923 195.721 165.669 196.008 170.873 193.027C175.844 190.179 178.92 184.612 180.764 176.621C172.221 175.693 164.074 173.287 156.252 169.67C155.518 177.768 153.704 185.577 150.589 193.037ZM116.71 93.8393C121.823 116.787 133.507 135.942 153.228 150.501C168.465 160.096 185.153 164.291 204.198 159.677C181.568 113.339 150.368 99.0183 116.71 93.8393Z" fill="black"/>
</g>
<defs>
<clipPath id="clip0_9_17">
<rect width="256" height="256" fill="white"/>
</clipPath>
</defs>
</svg>
